<?xml version="1.0" encoding="utf-8"?>
<!-- Generator: Adobe Illustrator 26.2.1, SVG Export Plug-In . SVG Version: 6.00 Build 0)  -->
<svg version="1.1" id="Capa_1" xmlns="http://www.w3.org/2000/svg" xmlns:xlink="http://www.w3.org/1999/xlink" x="0px" y="0px"
	 viewBox="0 0 150 150" style="enable-background:new 0 0 150 150;" xml:space="preserve">
<style type="text/css">
	.st0{fill:#2B2B2B;}
</style>
<path class="st0" d="M96.9,49L96.9,49c-0.4-0.4-0.9-0.6-1.5-0.5l-33.7,4.4C60.7,53,60,53.9,60,54.8v36.7c-2.1-1.8-4.9-2.8-7.8-2.8
	c-6.4,0-11.7,4.8-11.7,10.6c0,5.9,5.2,10.6,11.7,10.6s11.7-4.8,11.7-10.6c0-0.2,0-0.5,0-0.7c0-0.1,0-0.2,0-0.3V67.6l29.9-3.8v16.9
	c-2.1-1.8-4.9-2.8-7.8-2.8c-6.4,0-11.7,4.8-11.7,10.6S79.4,99.1,86,99.1c6.3,0,11.6-4.7,11.7-10.3V50.4C97.5,49.9,97.3,49.4,96.9,49
	z M93.7,88.5c0,3.7-3.5,6.8-7.8,6.8c-4.4,0-7.8-3.1-7.8-6.8s3.5-6.8,7.8-6.8C90.2,81.7,93.7,84.8,93.7,88.5z M93.7,52.6v7.3
	l-29.9,3.8v-7.3L93.7,52.6z M60,99.4c0,3.7-3.5,6.8-7.8,6.8c-4.4,0-7.8-3.1-7.8-6.8s3.5-6.8,7.8-6.8S60,95.7,60,99.4z"/>
</svg>
