<?xml version="1.0" encoding="utf-8"?>
<!-- Generator: Adobe Illustrator 26.2.1, SVG Export Plug-In . SVG Version: 6.00 Build 0)  -->
<svg version="1.1" id="Capa_1" xmlns="http://www.w3.org/2000/svg" xmlns:xlink="http://www.w3.org/1999/xlink" x="0px" y="0px"
	 viewBox="0 0 150 150" style="enable-background:new 0 0 150 150;" xml:space="preserve">
<style type="text/css">
	.st0{fill:#2B2B2B;}
</style>
<g>
	<g>
		<path class="st0" d="M86.6,106.7H62.7c-8.7,0-15.8-7.1-15.8-15.8V67c0-8.7,7.1-15.8,15.8-15.8h23.9c8.7,0,15.8,7.1,15.8,15.8v23.9
			C102.3,99.6,95.2,106.7,86.6,106.7z M62.7,56c-6.1,0-11,4.9-11,11v23.9c0,6.1,4.9,11,11,11h23.9c6.1,0,11-4.9,11-11V67
			c0-6.1-4.9-11-11-11H62.7z"/>
	</g>
	<g>
		<path class="st0" d="M74.6,93.2c-7.9,0-14.2-6.4-14.2-14.2s6.4-14.2,14.2-14.2S88.8,71.1,88.8,79S82.5,93.2,74.6,93.2z M74.6,69.5
			c-5.2,0-9.4,4.3-9.4,9.4c0,5.2,4.3,9.4,9.4,9.4S84,84.1,84,79C84,73.8,79.8,69.5,74.6,69.5z"/>
	</g>
	<g>
		<path class="st0" d="M92.8,63.9c0,1.9-1.5,3.4-3.4,3.4S86,65.8,86,63.9s1.5-3.4,3.4-3.4S92.8,62.1,92.8,63.9z"/>
	</g>
</g>
</svg>
