<?xml version="1.0" encoding="utf-8"?>
<!-- Generator: Adobe Illustrator 26.2.1, SVG Export Plug-In . SVG Version: 6.00 Build 0)  -->
<svg version="1.1" id="Capa_1" xmlns="http://www.w3.org/2000/svg" xmlns:xlink="http://www.w3.org/1999/xlink" x="0px" y="0px"
	 viewBox="0 0 150 150" style="enable-background:new 0 0 150 150;" xml:space="preserve">
<style type="text/css">
	.st0{fill:#2B2B2B;}
</style>
<g>
	<path class="st0" d="M110.9,108h-6.3V86.8l4.2,1.6c0.1,0,0.2,0.1,0.4,0.1c0.4,0,0.8-0.2,0.9-0.7c0.2-0.5-0.1-1-0.6-1.2l-20.6-8
		c-0.5-0.2-1,0.1-1.2,0.6c-0.2,0.5,0.1,1,0.6,1.2l14.4,5.5v22H86.8V75l2.2,1.9c0.3,0.3,0.7,0.3,1,0.2c0.4-0.2,0.6-0.5,0.6-0.8v-8
		c0-0.3-0.1-0.6-0.4-0.8l-16-13.2v-8H77c0.6,0,0.9-0.5,0.9-0.9c0-0.5-0.5-0.9-0.9-0.9h-2.8v-2.3c0-0.6-0.5-0.9-0.9-0.9
		c-0.6,0-0.9,0.5-0.9,0.9v2.3h-3c-0.6,0-0.9,0.5-0.9,0.9c0,0.5,0.5,0.9,0.9,0.9h3V54L55.4,68.8c-0.2,0.2-0.3,0.5-0.3,0.8v7.8
		c0,0.4,0.2,0.8,0.6,0.8c0.1,0.1,0.3,0.1,0.4,0.1c0.2,0,0.5-0.1,0.7-0.3l2.2-1.9v31.8H43.5v-22l14.1-5.4c0.5-0.2,0.8-0.8,0.6-1.2
		c-0.2-0.5-0.8-0.8-1.2-0.6l-20.6,8c-0.5,0.2-0.8,0.8-0.6,1.2c0.2,0.4,0.5,0.7,0.9,0.7c0.1,0,0.2,0,0.4-0.1l4.6-1.8V108h-4.9
		c-0.6,0-0.9,0.5-0.9,0.9c0,0.6,0.5,0.9,0.9,0.9h74.2c0.6,0,0.9-0.5,0.9-0.9C111.8,108.5,111.4,108,110.9,108z M57,70.1l16.1-14.2
		l15.6,12.9v5.4L73.9,61.4c-0.4-0.3-0.9-0.3-1.3,0L59.4,73.2c-0.2,0.1-0.4,0.2-0.5,0.4L57,75.2V70.1z M60.8,74.5l12.5-11.1
		l11.7,10.1V108h-4.5V97.4c0-5-3.6-7.1-7.1-7.1c-3.6,0-7.1,2.3-7.1,7.1V108h-5.4C60.8,108,60.8,74.5,60.8,74.5z M78.5,108H68.1V97.4
		c0-3.9,2.7-5.3,5.2-5.3c2.5,0,5.2,1.4,5.2,5.3V108z"/>
	<path class="st0" d="M46.2,93.3v9c0,0.6,0.5,0.9,0.9,0.9h8c0.6,0,0.9-0.5,0.9-0.9v-9c0-4-2.5-5.8-5-5.8
		C48.7,87.5,46.2,89.3,46.2,93.3z M54.2,93.3v8.1h-6.1v-8.1c0-2.8,1.6-3.9,3-3.9C52.6,89.4,54.2,90.4,54.2,93.3z"/>
	<path class="st0" d="M98.8,103.3c0.6,0,0.9-0.5,0.9-0.9v-9c0-4-2.5-5.8-5-5.8c-2.4,0-5,1.8-5,5.8v9c0,0.6,0.5,0.9,0.9,0.9H98.8z
		 M91.7,93.3c0-2.8,1.6-3.9,3-3.9c1.5,0,3,1,3,3.9v8.1h-6.1L91.7,93.3L91.7,93.3z"/>
	<path class="st0" d="M73.3,82.2c2.3,0,4.1-1.9,4.1-4.1c0-2.3-1.9-4.1-4.1-4.1c-2.3,0-4.1,1.9-4.1,4.1
		C69.2,80.3,70.9,82.2,73.3,82.2z M73.3,75.9c1.2,0,2.2,1,2.2,2.2c0,1.2-1,2.2-2.2,2.2c-1.2,0-2.2-1-2.2-2.2
		C71,76.8,72.1,75.9,73.3,75.9z"/>
</g>
</svg>
