<?xml version="1.0" encoding="utf-8"?>
<!-- Generator: Adobe Illustrator 26.2.1, SVG Export Plug-In . SVG Version: 6.00 Build 0)  -->
<svg version="1.1" id="Capa_1" xmlns="http://www.w3.org/2000/svg" xmlns:xlink="http://www.w3.org/1999/xlink" x="0px" y="0px"
	 viewBox="0 0 150 150" style="enable-background:new 0 0 150 150;" xml:space="preserve">
<style type="text/css">
	.st0{fill:#2B2B2B;}
</style>
<g>
	<g>
		<g>
			<path class="st0" d="M68.3,74.2c0.3,0,0.7-0.1,0.9-0.4c0.2-0.2,0.4-0.6,0.4-0.9s-0.1-0.7-0.4-0.9c-0.2-0.2-0.6-0.4-0.9-0.4
				s-0.7,0.1-0.9,0.4c-0.2,0.2-0.4,0.6-0.4,0.9s0.1,0.7,0.4,0.9C67.7,74.1,68,74.2,68.3,74.2z"/>
			<path class="st0" d="M97.9,109.7l-6.7-3.2l-2-11.8c1.6-0.6,3.1-1.6,4-3c1.2-1.7,1.7-3.9,1.3-6l-4.8-27.4c-0.1-0.7-0.8-1.1-1.4-1
				L75,59.7l-13.5-2.4c-0.7-0.1-1.3,0.3-1.4,1l-4.8,27.4c-0.7,4,1.7,7.8,5.4,9.1l-1.9,11.8l-6.7,3.2c-0.5,0.2-0.8,0.8-0.7,1.2
				c0.1,0.6,0.5,1,1,1.1l12.9,2.2c0.1,0,0.1,0,0.2,0l0,0c0.7,0,1.1-0.6,1.1-1.2c0-0.4-0.2-0.7-0.4-1l-5.2-5.2l2-11.8
				c0.1,0,0.1,0,0.2,0c3.9,0,7.3-2.8,7.9-6.7L75,67.3l3.7,21.3c0.7,3.9,4,6.7,7.9,6.7l0,0c0.1,0,0.1,0,0.2,0l2,11.8l-5.3,5.2
				c-0.4,0.4-0.5,1-0.2,1.4c0.2,0.4,0.7,0.7,1.1,0.7c0.1,0,0.1,0,0.2,0l12.9-2.2c0.5-0.1,1-0.5,1-1.1
				C98.7,110.4,98.4,109.9,97.9,109.7z M62.4,59.9l11.1,1.9l-1,5.7l-11.1-1.9L62.4,59.9z M62.4,92.7c-3.1-0.6-5.2-3.4-4.6-6.5
				l3.2-18.1L72,70l-3.2,18.1c-0.5,2.7-2.8,4.7-5.5,4.7C63,92.8,62.7,92.8,62.4,92.7z M61.9,111.1l-5.3-1l3-1.4L61.9,111.1z
				 M81.1,88.1L78,70l11.1-1.9l3.2,18.1c0.3,1.5-0.1,3-1,4.2c-0.9,1.2-2.2,2-3.6,2.3c-0.3,0.1-0.7,0.1-1,0.1
				C83.9,92.8,81.6,90.8,81.1,88.1z M87.6,59.9l1,5.7l-11.1,1.9l-1-5.7L87.6,59.9z M88.1,111.1l2.3-2.3l3,1.4L88.1,111.1z"/>
			<path class="st0" d="M81.2,71c-0.3,0-0.7,0.1-0.9,0.4c-0.2,0.2-0.4,0.6-0.4,0.9s0.1,0.7,0.4,0.9c0.2,0.2,0.6,0.4,0.9,0.4
				s0.7-0.1,0.9-0.4c0.2-0.2,0.4-0.6,0.4-0.9s-0.1-0.7-0.4-0.9C81.9,71.1,81.6,71,81.2,71z"/>
			<path class="st0" d="M88.7,73.1c0.2-0.2,0.4-0.6,0.4-0.9s-0.1-0.7-0.4-0.9c-0.2-0.2-0.6-0.4-0.9-0.4s-0.7,0.1-0.9,0.4
				c-0.2,0.2-0.4,0.6-0.4,0.9s0.1,0.7,0.4,0.9c0.2,0.2,0.6,0.4,0.9,0.4S88.5,73.3,88.7,73.1z"/>
			<path class="st0" d="M85.1,75.5c-0.3,0-0.7,0.1-0.9,0.4c-0.2,0.2-0.4,0.6-0.4,0.9s0.1,0.7,0.4,0.9c0.2,0.2,0.6,0.4,0.9,0.4
				s0.7-0.1,0.9-0.4c0.2-0.2,0.4-0.6,0.4-0.9s-0.1-0.7-0.4-0.9C85.8,75.6,85.4,75.5,85.1,75.5z"/>
			<path class="st0" d="M62.2,75.1c-0.3,0-0.7,0.1-0.9,0.4c-0.2,0.2-0.4,0.6-0.4,0.9s0.1,0.7,0.4,0.9c0.2,0.2,0.6,0.4,0.9,0.4
				c0.3,0,0.7-0.1,0.9-0.4c0.2-0.2,0.4-0.6,0.4-0.9s-0.1-0.7-0.4-0.9C62.9,75.2,62.5,75.1,62.2,75.1z"/>
			<path class="st0" d="M68,79.1c0-0.3-0.1-0.7-0.4-0.9c-0.2-0.2-0.6-0.4-0.9-0.4s-0.7,0.1-0.9,0.4c-0.2,0.2-0.4,0.6-0.4,0.9
				s0.1,0.7,0.4,0.9c0.2,0.2,0.6,0.4,0.9,0.4s0.7-0.1,0.9-0.4C67.8,79.7,68,79.4,68,79.1z"/>
			<path class="st0" d="M74.6,54.6l-5.8-5.5c-0.8-0.8-1.2-1.7-1.2-2.8s0.4-2.1,1.1-2.9c1.5-1.6,4-1.6,5.6-0.1l0.3,0.2l0.2-0.2
				c1.5-1.5,4.1-1.5,5.6,0c0.8,0.8,1.1,1.7,1.1,2.9s-0.5,2.1-1.1,2.8L74.6,54.6z M71.6,43.8c-0.7,0-1.2,0.3-1.7,0.8
				c-0.5,0.5-0.7,1.1-0.7,1.7c0,0.7,0.3,1.2,0.8,1.6l4.7,4.5l4.6-4.5c0.5-0.5,0.7-1.1,0.7-1.7s-0.2-1.2-0.7-1.7c-1-1-2.5-1-3.3,0
				l-1.3,1.3l-1.3-1.3C72.7,44,72.1,43.8,71.6,43.8z"/>
		</g>
	</g>
</g>
</svg>
